<?xml version="1.0" encoding="UTF-8" standalone="no"?><!DOCTYPE svg PUBLIC "-//W3C//DTD SVG 1.1//EN" "http://www.w3.org/Graphics/SVG/1.1/DTD/svg11.dtd"><svg width="100%" height="100%" viewBox="0 0 119 27" version="1.1" xmlns="http://www.w3.org/2000/svg" xmlns:xlink="http://www.w3.org/1999/xlink" xml:space="preserve" xmlns:serif="http://www.serif.com/" style="fill-rule:evenodd;clip-rule:evenodd;stroke-linejoin:round;stroke-miterlimit:2;"><g><g transform="matrix(1,0,0,0.978089,-0,-2.807541)"><g transform="matrix(36.661623,0,0,36.661623,29.475945,30.439976)"></g><text x="-2.86px" y="30.44px" style="font-family:'IBMPlexSans-Medium', 'IBM Plex Sans', sans-serif;font-weight:500;font-size:36.662px;fill:#0033a0;">m</text></g><g transform="matrix(1,0,0,0.978089,0,-2.807541)"><g transform="matrix(36.661623,0,0,36.661623,66.522041,30.439976)"></g><text x="45.258px" y="30.44px" style="font-family:'IBMPlexSans-Medium', 'IBM Plex Sans', sans-serif;font-weight:500;font-size:36.662px;fill:#0033a0;">n</text></g><g transform="matrix(1,0,0,0.978089,0,-2.807541)"><g transform="matrix(36.661623,0,0,36.661623,82.163174,30.439976)"></g><text x="62.109px" y="30.44px" style="font-family:'IBMPlexSans-Medium', 'IBM Plex Sans', sans-serif;font-weight:500;font-size:36.662px;fill:#0033a0;">k</text></g><g transform="matrix(1,0,0,0.978089,0,-2.81697)"><g transform="matrix(36.661623,0,0,36.661623,102.936935,30.009676)"></g><text x="81.233px" y="30.01px" style="font-family:'IBMPlexSans-Medium', 'IBM Plex Sans', sans-serif;font-weight:500;font-size:36.662px;fill:#0033a0;">d</text></g><g transform="matrix(1,0,0,0.978089,-0,-2.81697)"><g transform="matrix(36.661623,0,0,36.661623,120.044532,30.009676)"></g><text x="98.341px" y="30.01px" style="font-family:'IBMPlexSans-Medium', 'IBM Plex Sans', sans-serif;font-weight:500;font-size:36.662px;fill:#0033a0;">b</text></g><path d="M37.459,7.889c5.263,0 9.536,4.274 9.536,9.538c0,5.264 -4.273,9.538 -9.536,9.538c-5.263,0 -9.536,-4.274 -9.536,-9.538c0,-5.264 4.273,-9.538 9.536,-9.538Zm4.418,11.994c1.987,-1.7 2.22,-4.693 0.521,-6.68c-1.7,-1.987 -4.693,-2.22 -6.68,-0.521l-2.677,2.29c-1.987,1.7 -2.22,4.693 -0.521,6.68c1.7,1.987 4.693,2.22 6.68,0.521l2.677,-2.29Z" style="fill:#0033a0;"/></g></svg>